<?xml version="1.0" encoding="utf-8"?>
<!-- Generated by IcoMoon.io -->
<!DOCTYPE svg PUBLIC "-//W3C//DTD SVG 1.1//EN" "http://www.w3.org/Graphics/SVG/1.1/DTD/svg11.dtd">
<svg version="1.1" xmlns="http://www.w3.org/2000/svg" xmlns:xlink="http://www.w3.org/1999/xlink" width="32" height="32" viewBox="0 0 32 32">
<g>
</g>
	<path d="M30 14c-1.105 0-2 0.896-2 2v12h-24v-12c0-1.104-0.894-2-2-2s-2 0.896-2 2v14c0 1.105 0.894 2 2 2h28c1.105 0 2-0.895 2-2v-14c0-1.104-0.895-2-2-2zM14 20c0 1.105 0.895 2 2 2s2-0.895 2-2v-12h6l-8-8-8 8h6v12z" fill="#111" />
</svg>
